<?xml version="1.0" encoding="utf-8"?>
<!-- Generator: Adobe Illustrator 16.0.0, SVG Export Plug-In . SVG Version: 6.00 Build 0)  -->
<!DOCTYPE svg PUBLIC "-//W3C//DTD SVG 1.1//EN" "http://www.w3.org/Graphics/SVG/1.1/DTD/svg11.dtd" [
	<!ENTITY ns_flows "http://ns.adobe.com/Flows/1.0/">
	<!ENTITY ns_extend "http://ns.adobe.com/Extensibility/1.0/">
	<!ENTITY ns_ai "http://ns.adobe.com/AdobeIllustrator/10.0/">
	<!ENTITY ns_graphs "http://ns.adobe.com/Graphs/1.0/">
]>
<svg version="1.1" id="Layer_1" xmlns:x="&ns_extend;" xmlns:i="&ns_ai;" xmlns:graph="&ns_graphs;"
	 xmlns="http://www.w3.org/2000/svg" xmlns:xlink="http://www.w3.org/1999/xlink" xmlns:a="http://ns.adobe.com/AdobeSVGViewerExtensions/3.0/"
	 x="0px" y="0px" viewBox="0 0 792 612" enable-background="new 0 0 792 612" xml:space="preserve">
<g>
	<path d="M650.602,590.006V224.719c42.434-13.029,52.235-53.789,45.063-82.357L658.132,2.391H133.868l-37.652,140.21
		c-7.053,28.329,3.227,69.089,45.183,82.118v365.287H92.391v19.604h607.219v-19.604H650.602z M630.998,208.104
		c-27.014,0-49.008-21.994-49.008-49.008V119.89h87.378l7.411,27.373C683.712,172.125,668.412,208.104,630.998,208.104z
		 M229.493,119.89h97.896v39.207c0,27.014-21.994,49.008-49.008,49.008s-49.008-21.994-49.008-49.008V119.89H229.493z
		 M346.992,119.89h98.016v39.207c0,27.014-21.994,49.008-49.008,49.008c-27.014,0-49.008-21.994-49.008-49.008V119.89z
		 M464.611,119.89h97.896v39.207c0,27.014-21.993,49.008-49.008,49.008c-27.014,0-49.008-21.994-49.008-49.008V119.89H464.611z
		 M148.929,21.994H643.19l21.038,78.293H127.892L148.929,21.994z M115.221,147.501l7.411-27.612h87.377v39.207
		c0,27.014-21.994,49.008-49.008,49.008C123.469,208.104,108.288,171.049,115.221,147.501z M445.008,590.006V335.404H582.11v254.602
		H445.008z M630.998,590.006h-29.404V315.802H425.404v274.204H161.001V227.707c24.863,0,46.737-13.388,58.81-33.229
		c11.953,19.961,33.827,33.229,58.809,33.229c24.863,0,46.737-13.388,58.81-33.229c11.953,19.961,33.827,33.229,58.81,33.229
		c24.862,0,46.736-13.388,58.81-33.229c11.953,19.961,33.827,33.229,58.809,33.229c24.863,0,46.737-13.388,58.81-33.229
		c11.953,19.961,33.827,33.229,58.81,33.229v362.299H630.998z"/>
	<path d="M190.287,560.602h195.912V364.81H190.287V560.602z M209.89,472.507h68.611v68.611H209.89V472.507L209.89,472.507z
		 M298.104,540.998v-68.61h68.611v68.61H298.104z M366.595,452.904h-68.611v-68.611h68.611V452.904z M278.501,384.293v68.611H209.89
		v-68.611H278.501z"/>
	<rect x="288.302" y="276.595" width="19.603" height="19.603"/>
	<rect x="249.096" y="276.595" width="19.603" height="19.603"/>
	<rect x="327.389" y="276.595" width="19.603" height="19.603"/>
</g>
</svg>
